<svg xmlns="http://www.w3.org/2000/svg" version="1.1" xmlns:xlink="http://www.w3.org/1999/xlink" viewBox="0 0 11.44667951300876 4.999273940712525"><g transform="matrix(1,0,0,1,0.6195371857703487,1.9596369703562626)"><g clip-path="url(#SvgjsClipPath1001)"><g clip-path="url(#SvgjsClipPath1000a80b2d95-82ea-4d67-8e6b-f7e02f6b1d63)"><path d=" M 7.958539455577542 1.3280180145062963 C 7.984800439399449 1.2833743420090533 8.000932186604336 1.2319778451004617 8.000932186604336 1.1768297790744562 C 8.000932186604336 1.1205562423132247 7.984800439399449 1.0691597454046344 7.958539455577542 1.0245160729073914 L 7.967168064547597 1.0245160729073914 C 8.135613517919548 1.0245160729073914 8.272920947616951 0.8868334862982477 8.272920947616951 0.7187631898380378 C 8.272920947616951 0.5503177364660867 8.135238361007806 0.41301030676868455 7.967168064547597 0.41301030676868455 L 7.660664867654761 0.41301030676868455 C 7.686925851476668 0.36836663427144156 7.703057598681554 0.31697013736284996 7.703057598681554 0.26182207133684443 C 7.703057598681554 0.20554853457561317 7.686925851476668 0.15415203766702268 7.660664867654761 0.10950836516977969 C 7.659164240007795 0.106507109875847 7.657663612360828 0.10275554075843218 7.65541267089038 0.09862881472927554 C 7.787467903823401 0.06561500649601992 7.885759014699683 -0.053684891437789206 7.885759014699683 -0.19624451789957376 C 7.885759014699683 -0.3646899712715238 7.748826741914023 -0.5019974009689271 7.58000613163033 -0.5019974009689271 L 7.446450271050342 -0.5019974009689271 C 7.47271125487225 -0.5466410734661701 7.488843002077136 -0.5980375703747611 7.488843002077136 -0.6531856364007677 C 7.488843002077136 -0.7094591731619978 7.47271125487225 -0.760855670070589 7.446450271050342 -0.805499342567832 L 7.920648607491646 -0.805499342567832 C 8.04820195748377 -0.805499342567832 8.158122932624039 -0.8839071371218133 8.203516918944764 -0.99532873990905 L 9.509062971805317 -0.99532873990905 C 9.71502411635142 -0.99532873990905 9.88309441281163 -0.8276336003605826 9.88309441281163 -0.6212972989027367 L 9.88309441281163 1.1445662846646827 C 9.88309441281163 1.3505274292107865 9.714648959439678 1.5178474118475118 9.509062971805317 1.5178474118475118 L 7.449826683256015 1.5178474118475118 C 7.444574486491634 1.5054672337600405 7.438196818992028 1.493087055672571 7.43144399458068 1.4818323483203244 L 7.695929617358464 1.4818323483203244 C 7.8077263770574445 1.4814571914085848 7.905642331021985 1.4191811440594901 7.958539455577542 1.3280180145062963 Z" fill="#382d5e" transform="matrix(1,0,0,1,0,0)" fill-rule="nonzero"></path></g><g clip-path="url(#SvgjsClipPath1000a80b2d95-82ea-4d67-8e6b-f7e02f6b1d63)"><path d=" M 10.207605141468061 -0.8306348556545133 L 10.207605141468061 1.3531535275929794 C 10.207605141468061 1.6345212113991328 9.979509739129206 1.8626166137379885 9.698142055323054 1.8626166137379885 L 7.367667319584619 1.8626166137379885 C 7.431443994580681 1.8063430769767583 7.473086411783992 1.7249340271288447 7.473086411783992 1.6337708975756504 C 7.473086411783992 1.6206404056646968 7.472336097960509 1.6075099137537432 7.470085156490059 1.5947545787545305 L 9.508687814893577 1.5947545787545305 C 9.757792004289957 1.5947545787545305 9.959626422806906 1.3925450033258424 9.959626422806906 1.1445662846646854 L 9.959626422806906 -0.6212972989027337 C 9.959626422806906 -0.8704014882991147 9.757416847378217 -1.072235906816062 9.508687814893577 -1.072235906816062 L 8.223025078355326 -1.072235906816062 C 8.225276019825776 -1.0853663987270157 8.226026333649259 -1.0984968906379697 8.226026333649259 -1.1112522256371824 C 8.226026333649259 -1.2027905121021174 8.184383916445947 -1.2841995619500315 8.120607241449886 -1.34009794179952 L 9.698142055323054 -1.34009794179952 C 9.979509739129206 -1.3408482556230048 10.207605141468061 -1.1123776963724086 10.207605141468061 -0.8306348556545133 Z" fill="#382d5e" transform="matrix(1,0,0,1,0,0)" fill-rule="nonzero"></path></g><g clip-path="url(#SvgjsClipPath1000a80b2d95-82ea-4d67-8e6b-f7e02f6b1d63)"><path d=" M 5.878669536882456 -0.9596888332936022 L 6.04298826422525 -0.9596888332936022 C 6.126648255543612 -0.9596888332936022 6.194926813480572 -1.0279673912305622 6.194926813480572 -1.111627382548925 C 6.194926813480572 -1.195287373867288 6.126648255543612 -1.263565931804248 6.04298826422525 -1.263565931804248 L 5.878669536882456 -1.263565931804248 C 5.795009545564093 -1.263565931804248 5.726730987627134 -1.195287373867288 5.726730987627134 -1.111627382548925 C 5.726730987627134 -1.0279673912305622 5.7946343886523515 -0.9596888332936022 5.878669536882456 -0.9596888332936022 Z" fill="#efe0e2" transform="matrix(1,0,0,1,0,0)" fill-rule="nonzero"></path></g><g clip-path="url(#SvgjsClipPath1000a80b2d95-82ea-4d67-8e6b-f7e02f6b1d63)"><path d=" M 5.447614245291429 -0.5019974009689261 L 5.658827586601914 -0.5019974009689261 L 5.6952178070408435 -0.5019974009689261 C 5.778877798359207 -0.5019974009689261 5.847156356296166 -0.5702759589058851 5.847156356296166 -0.6539359502242488 C 5.847156356296166 -0.737595941542612 5.778877798359207 -0.8058744994795715 5.6952178070408435 -0.8058744994795715 L 5.447614245291429 -0.8058744994795715 C 5.363954253973065 -0.8058744994795715 5.295675696036106 -0.737595941542612 5.295675696036106 -0.6539359502242488 C 5.296050852947848 -0.5702759589058861 5.363954253973065 -0.5019974009689261 5.447614245291429 -0.5019974009689261 Z" fill="#efe0e2" transform="matrix(1,0,0,1,0,0)" fill-rule="nonzero"></path></g><g clip-path="url(#SvgjsClipPath1000a80b2d95-82ea-4d67-8e6b-f7e02f6b1d63)"><path d=" M 5.8599116912953795 -0.19661967481131426 C 5.8599116912953795 -0.2802796661296765 5.7916331333584194 -0.3485582240666365 5.707973142040056 -0.3485582240666365 L 5.695592963952586 -0.3485582240666365 L 5.6592027435136565 -0.3485582240666365 C 5.575542752195293 -0.3485582240666365 5.507264194258334 -0.2802796661296765 5.507264194258334 -0.19661967481131426 C 5.507264194258334 -0.11295968349295116 5.575542752195293 -0.04468112555599113 5.6592027435136565 -0.04468112555599113 L 5.707973142040056 -0.04468112555599113 C 5.792008290270161 -0.04468112555599202 5.8599116912953795 -0.11258452658120954 5.8599116912953795 -0.19661967481131426 Z" fill="#efe0e2" transform="matrix(1,0,0,1,0,0)" fill-rule="nonzero"></path></g><g clip-path="url(#SvgjsClipPath1000a80b2d95-82ea-4d67-8e6b-f7e02f6b1d63)"><path d=" M 5.141111048398592 -0.19661967481131426 C 5.141111048398592 -0.23376020907372652 5.110723338547528 -0.26414791892479106 5.073582804285115 -0.26414791892479106 L 5.042819937522309 -0.26414791892479106 C 5.005679403259897 -0.26414791892479106 4.975291693408833 -0.23376020907372652 4.975291693408833 -0.19661967481131426 C 4.975291693408833 -0.1594791405489011 5.005679403259897 -0.12909143069783635 5.042819937522309 -0.12909143069783635 L 5.073582804285115 -0.12909143069783635 C 5.110723338547528 -0.12909143069783746 5.141111048398592 -0.15910398363716038 5.141111048398592 -0.19661967481131426 Z" fill="#c84449" transform="matrix(1,0,0,1,0,0)" fill-rule="nonzero"></path></g><g clip-path="url(#SvgjsClipPath1000a80b2d95-82ea-4d67-8e6b-f7e02f6b1d63)"><path d=" M 6.9707513069620735 0.2610717575133623 C 6.9707513069620735 0.1774117661949992 6.902472749025113 0.10913320825803807 6.81881275770675 0.10913320825803807 L 6.378378543322184 0.10913320825803807 L 6.123271843337939 0.10913320825803807 C 6.039611852019576 0.10913320825803807 5.971333294082616 0.1774117661949981 5.971333294082616 0.2610717575133623 C 5.971333294082616 0.3447317488317254 6.039611852019576 0.41301030676868544 6.123271843337939 0.41301030676868544 L 6.422647058907686 0.41301030676868544 L 6.577211706545199 0.41301030676868544 L 6.81881275770675 0.41301030676868544 C 6.902097592113371 0.41301030676868544 6.9707513069620735 0.3447317488317254 6.9707513069620735 0.2610717575133623 Z" fill="#efe0e2" transform="matrix(1,0,0,1,0,0)" fill-rule="nonzero"></path></g><g clip-path="url(#SvgjsClipPath1000a80b2d95-82ea-4d67-8e6b-f7e02f6b1d63)"><path d=" M 7.398055029435684 0.10913320825804007 C 7.3147701950290624 0.1098835220815233 7.247241950915585 0.1777869231067417 7.247241950915585 0.2610717575133634 C 7.247241950915585 0.3443565919199838 7.3147701950290624 0.41225999294520244 7.398055029435684 0.41301030676868655 C 7.481339863842306 0.41225999294520244 7.548868107955783 0.3447317488317265 7.548868107955783 0.2610717575133634 C 7.549243264867524 0.17778692310674082 7.481339863842306 0.10988352208152219 7.398055029435684 0.10913320825804007 Z" fill="#e37f7c" transform="matrix(1,0,0,1,0,0)" fill-rule="nonzero"></path></g><g clip-path="url(#SvgjsClipPath1000a80b2d95-82ea-4d67-8e6b-f7e02f6b1d63)"><path d=" M 5.675709647630283 0.2610717575133623 C 5.675709647630283 0.1774117661949992 5.607431089693324 0.10913320825803807 5.523771098374961 0.10913320825803807 L 5.369206450737447 0.10913320825803807 C 5.285546459419084 0.10913320825803807 5.217267901482124 0.1774117661949981 5.217267901482124 0.2610717575133623 C 5.217267901482124 0.3447317488317254 5.285546459419084 0.41301030676868544 5.369206450737447 0.41301030676868544 L 5.523771098374961 0.41301030676868544 C 5.607806246605065 0.41301030676868544 5.675709647630283 0.3447317488317254 5.675709647630283 0.2610717575133623 Z" fill="#c84449" transform="matrix(1,0,0,1,0,0)" fill-rule="nonzero"></path></g><g clip-path="url(#SvgjsClipPath1000a80b2d95-82ea-4d67-8e6b-f7e02f6b1d63)"><path d=" M 6.421896745084203 0.5668246405827158 C 6.338236753765839 0.5668246405827158 6.269958195828879 0.6351031985196747 6.269958195828879 0.7187631898380391 C 6.269958195828879 0.802423181156402 6.338236753765839 0.870701739093362 6.421896745084203 0.870701739093362 L 6.492801401403353 0.870701739093362 L 6.576836549633458 0.870701739093362 C 6.66049654095182 0.870701739093362 6.728775098888782 0.802423181156402 6.728775098888782 0.7187631898380391 C 6.728775098888782 0.6351031985196747 6.660496540951822 0.5668246405827158 6.576836549633458 0.5668246405827158 L 6.421896745084203 0.5668246405827158 Z" fill="#efe0e2" transform="matrix(1,0,0,1,0,0)" fill-rule="nonzero"></path></g><g clip-path="url(#SvgjsClipPath1000a80b2d95-82ea-4d67-8e6b-f7e02f6b1d63)"><path d=" M 5.600678265281976 0.7187631898380391 C 5.600678265281976 0.8024231811564011 5.668956823218936 0.870701739093362 5.752616814537299 0.870701739093362 L 5.887298145852511 0.870701739093362 L 5.907181462174813 0.870701739093362 C 5.990841453493176 0.870701739093362 6.059120011430135 0.802423181156402 6.059120011430135 0.7187631898380391 C 6.059120011430135 0.6351031985196747 5.990841453493176 0.5668246405827158 5.907181462174813 0.5668246405827158 L 5.752616814537299 0.5668246405827158 C 5.668581666307195 0.5668246405827158 5.600678265281976 0.6347280416079342 5.600678265281976 0.7187631898380391 Z" fill="#c84449" transform="matrix(1,0,0,1,0,0)" fill-rule="nonzero"></path></g><g clip-path="url(#SvgjsClipPath1000a80b2d95-82ea-4d67-8e6b-f7e02f6b1d63)"><path d=" M 5.254408435744537 0.6579877701359096 L 5.182378308690161 0.6579877701359096 C 5.1433619898690415 0.6579877701359096 5.111848809282752 0.689500950722199 5.111848809282752 0.7285172695433184 C 5.111848809282752 0.7675335883644383 5.1433619898690415 0.7990467689507277 5.182378308690161 0.7990467689507277 L 5.254408435744537 0.7990467689507277 C 5.293424754565657 0.7990467689507277 5.3249379351519455 0.7675335883644383 5.3249379351519455 0.7285172695433184 C 5.3249379351519455 0.689500950722199 5.293049597653916 0.6579877701359096 5.254408435744537 0.6579877701359096 Z" fill="#c84449" transform="matrix(1,0,0,1,0,0)" fill-rule="nonzero"></path></g><g clip-path="url(#SvgjsClipPath1000a80b2d95-82ea-4d67-8e6b-f7e02f6b1d63)"><path d=" M 6.039236695107833 1.1760794652509738 C 6.039236695107833 1.092419473932611 5.970958137170874 1.024140915995651 5.887298145852511 1.024140915995651 L 5.752616814537299 1.024140915995651 L 5.732733498214998 1.024140915995651 C 5.6490735068966345 1.024140915995651 5.580794948959674 1.0924194739326096 5.580794948959674 1.1760794652509738 C 5.580794948959674 1.2597394565693372 5.6490735068966345 1.3280180145062972 5.732733498214998 1.3280180145062972 L 5.887298145852511 1.3280180145062972 C 5.971333294082616 1.3280180145062963 6.039236695107833 1.2601146134810777 6.039236695107833 1.1760794652509738 Z" fill="#efe0e2" transform="matrix(1,0,0,1,0,0)" fill-rule="nonzero"></path></g><g clip-path="url(#SvgjsClipPath1000a80b2d95-82ea-4d67-8e6b-f7e02f6b1d63)"><path d=" M 6.242196584360006 1.4818323483203275 L 6.0876319367224925 1.4818323483203275 C 6.00397194540413 1.4818323483203275 5.93569338746717 1.5501109062572862 5.93569338746717 1.6337708975756504 C 5.93569338746717 1.7174308888940137 6.00397194540413 1.7857094468309738 6.0876319367224925 1.7857094468309738 L 6.242196584360006 1.7857094468309738 C 6.325856575678369 1.7857094468309738 6.394135133615329 1.7174308888940137 6.394135133615329 1.6337708975756504 C 6.3937599767035875 1.5501109062572862 6.325856575678369 1.4818323483203275 6.242196584360006 1.4818323483203275 Z" fill="#efe0e2" transform="matrix(1,0,0,1,0,0)" fill-rule="nonzero"></path></g><g clip-path="url(#SvgjsClipPath1000a80b2d95-82ea-4d67-8e6b-f7e02f6b1d63)"><path d=" M 4.742694408129079 0.19054225810595282 L 4.656033161516784 0.19054225810595282 C 4.617016842695663 0.19054225810595282 4.5855036621093745 0.2220554386922422 4.5855036621093745 0.2610717575133623 C 4.5855036621093745 0.30008807633448153 4.617016842695664 0.3316012569207709 4.656033161516784 0.3316012569207709 L 4.742694408129079 0.3316012569207709 C 4.781710726950199 0.3316012569207709 4.813223907536488 0.30008807633448153 4.813223907536488 0.2610717575133623 C 4.812848750624746 0.22243059560398382 4.781335570038458 0.19054225810595282 4.742694408129079 0.19054225810595282 Z" fill="#c84449" transform="matrix(1,0,0,1,0,0)" fill-rule="nonzero"></path></g><g clip-path="url(#SvgjsClipPath1000a80b2d95-82ea-4d67-8e6b-f7e02f6b1d63)"><path d=" M 7.695179303534983 1.024140915995651 L 7.669668633536558 1.024140915995651 L 7.285132799001481 1.024140915995651 L 6.577211706545199 1.024140915995651 L 6.4931765583150955 1.024140915995651 C 6.409516566996732 1.024140915995651 6.341238009059772 1.0924194739326096 6.341238009059772 1.1760794652509738 C 6.341238009059772 1.2597394565693372 6.409516566996732 1.3280180145062972 6.4931765583150955 1.3280180145062972 L 6.795928186090516 1.3280180145062972 L 7.16770868562638 1.3280180145062972 L 7.695179303534983 1.3280180145062972 C 7.778839294853345 1.3280180145062972 7.847117852790307 1.2597394565693372 7.847117852790307 1.1760794652509738 C 7.847117852790305 1.0924194739326096 7.778464137941604 1.024140915995651 7.695179303534983 1.024140915995651 Z" fill="#e37f7c" transform="matrix(1,0,0,1,0,0)" fill-rule="nonzero"></path></g><g clip-path="url(#SvgjsClipPath1000a80b2d95-82ea-4d67-8e6b-f7e02f6b1d63)"><path d=" M 8.294304891586219 2.1162226860752678 L 8.268794221587795 2.1162226860752678 L 8.037697563955007 2.1162226860752678 L 7.483590805312756 2.1162226860752678 L 7.399555657082649 2.1162226860752678 C 7.3158956657642875 2.1162226860752678 7.247617107827327 2.184501244012227 7.247617107827327 2.268161235330591 C 7.247617107827327 2.3518212266489544 7.315895665764287 2.4200997845859145 7.399555657082649 2.4200997845859145 L 7.548868107955782 2.4200997845859145 L 7.920648607491646 2.4200997845859145 L 8.294680048497959 2.4200997845859145 C 8.37834003981632 2.4200997845859145 8.446618597753282 2.3518212266489544 8.446618597753282 2.268161235330591 C 8.446243440841542 2.184501244012227 8.378340039816322 2.1162226860752678 8.294304891586219 2.1162226860752678 Z" fill="#382d5e" transform="matrix(1,0,0,1,0,0)" fill-rule="nonzero"></path></g><g clip-path="url(#SvgjsClipPath1000a80b2d95-82ea-4d67-8e6b-f7e02f6b1d63)"><path d=" M 7.7323198377973945 -0.19661967481131426 C 7.7323198377973945 -0.2802796661296765 7.6640412798604345 -0.3485582240666365 7.580381288542071 -0.3485582240666365 L 7.183090119007782 -0.3485582240666365 L 6.948992206081062 -0.3485582240666365 L 6.3783785433221825 -0.3485582240666365 C 6.294718552003819 -0.3485582240666365 6.22643999406686 -0.2802796661296765 6.22643999406686 -0.19661967481131426 C 6.22643999406686 -0.11295968349295116 6.294718552003819 -0.04468112555599113 6.3783785433221825 -0.04468112555599113 L 6.818812757706749 -0.04468112555599113 L 7.397304715612201 -0.04468112555599113 L 7.39993081399439 -0.04468112555599113 L 7.506100220017245 -0.04468112555599113 L 7.58038128854207 -0.04468112555599113 C 7.6640412798604345 -0.04468112555599202 7.7323198377973945 -0.11258452658120954 7.7323198377973945 -0.19661967481131426 Z" fill="#e37f7c" transform="matrix(1,0,0,1,0,0)" fill-rule="nonzero"></path></g><g clip-path="url(#SvgjsClipPath1000a80b2d95-82ea-4d67-8e6b-f7e02f6b1d63)"><path d=" M 7.9671680645475975 0.5668246405827158 L 7.506100220017247 0.5668246405827158 L 7.399930813994392 0.5668246405827158 L 7.3973047156122025 0.5668246405827158 L 7.285132799001481 0.5668246405827158 C 7.201472807683119 0.5668246405827158 7.133194249746158 0.6351031985196747 7.133194249746158 0.7187631898380391 C 7.133194249746158 0.802423181156402 7.201472807683118 0.870701739093362 7.285132799001481 0.870701739093362 L 7.695554460446724 0.870701739093362 L 7.967543221459339 0.870701739093362 C 8.0512032127777 0.870701739093362 8.119481770714662 0.802423181156402 8.119481770714662 0.7187631898380391 C 8.11910661380292 0.6347280416079342 8.05045289895422 0.5668246405827158 7.9671680645475975 0.5668246405827158 Z" fill="#e37f7c" transform="matrix(1,0,0,1,0,0)" fill-rule="nonzero"></path></g><g clip-path="url(#SvgjsClipPath1000a80b2d95-82ea-4d67-8e6b-f7e02f6b1d63)"><path d=" M 6.3164776528848305 -0.5019974009689261 L 6.378003386410443 -0.5019974009689261 L 6.948992206081064 -0.5019974009689261 L 7.183090119007783 -0.5019974009689261 C 7.2667501103261465 -0.5019974009689261 7.3350286682631065 -0.5702759589058851 7.3350286682631065 -0.6539359502242488 C 7.3350286682631065 -0.737595941542612 7.266750110326147 -0.8058744994795715 7.183090119007783 -0.8058744994795715 L 6.948992206081064 -0.8058744994795715 L 6.71864586227176 -0.8058744994795715 L 6.316852809796572 -0.8058744994795715 C 6.233192818478209 -0.8058744994795715 6.1649142605412495 -0.737595941542612 6.1649142605412495 -0.6539359502242488 C 6.164163946717766 -0.5702759589058861 6.232817661566468 -0.5019974009689261 6.3164776528848305 -0.5019974009689261 Z" fill="#e37f7c" transform="matrix(1,0,0,1,0,0)" fill-rule="nonzero"></path></g><g clip-path="url(#SvgjsClipPath1000a80b2d95-82ea-4d67-8e6b-f7e02f6b1d63)"><path d=" M 6.717895548448276 -0.9596888332936022 L 6.948617049169322 -0.9596888332936022 L 7.182714962096043 -0.9596888332936022 L 7.920273450579906 -0.9596888332936022 C 8.003933441898269 -0.9596888332936022 8.072211999835229 -1.0279673912305622 8.072211999835229 -1.111627382548925 C 8.072211999835229 -1.195287373867288 8.003933441898269 -1.263565931804248 7.920273450579906 -1.263565931804248 L 6.718270705360018 -1.263565931804248 C 6.6346107140416555 -1.263565931804248 6.5663321561046954 -1.195287373867288 6.5663321561046954 -1.111627382548925 C 6.5663321561046954 -1.0279673912305622 6.634235557129914 -0.9596888332936022 6.717895548448276 -0.9596888332936022 Z" fill="#e37f7c" transform="matrix(1,0,0,1,0,0)" fill-rule="nonzero"></path></g><g clip-path="url(#SvgjsClipPath1000a80b2d95-82ea-4d67-8e6b-f7e02f6b1d63)"><path d=" M 7.1673335287146385 1.4818323483203275 L 6.795553029178775 1.4818323483203275 C 6.711893037860412 1.4818323483203275 6.64361447992345 1.5501109062572862 6.64361447992345 1.6337708975756504 C 6.64361447992345 1.7174308888940137 6.71189303786041 1.7857094468309738 6.795553029178775 1.7857094468309738 L 7.1673335287146385 1.7857094468309738 C 7.250993520033001 1.7857094468309738 7.319272077969962 1.7174308888940137 7.319272077969962 1.6337708975756504 C 7.31889692105822 1.5501109062572862 7.251368676944743 1.4818323483203275 7.1673335287146385 1.4818323483203275 Z" fill="#e37f7c" transform="matrix(1,0,0,1,0,0)" fill-rule="nonzero"></path></g></g><g><path d=" M 0.531 0 L 1.02 1.0710000000000002 L 0.7515000000000001 1.0710000000000002 L 0.4395 0.2895000000000001 L 0.531 0 M 0.2085 0.9705 Q 0.1965 1.0005000000000002 0.20400000000000001 1.0215 Q 0.2115 1.0425 0.2295 1.05375 Q 0.2475 1.0650000000000002 0.2655 1.0650000000000002 L 0.279 1.0650000000000002 L 0.279 1.08 L -0.042 1.08 L -0.042 1.0650000000000002 Q -0.042 1.0650000000000002 -0.035250000000000004 1.0650000000000002 Q -0.0285 1.0650000000000002 -0.0285 1.0650000000000002 Q 0.006 1.0650000000000002 0.04275 1.04325 Q 0.0795 1.0215 0.10350000000000001 0.9705 L 0.2085 0.9705 M 0.531 0 L 0.537 0.18300000000000005 L 0.165 1.0755000000000001 L 0.0555 1.0755000000000001 L 0.444 0.1965 Q 0.4485 0.1875 0.45975 0.16275000000000006 Q 0.47100000000000003 0.138 0.48375 0.10650000000000004 Q 0.4965 0.07499999999999996 0.507 0.04574999999999996 Q 0.5175 0.01649999999999996 0.5175 0 L 0.531 0 M 0.6885 0.7230000000000001 L 0.6885 0.786 L 0.2475 0.786 L 0.2475 0.7230000000000001 L 0.6885 0.7230000000000001 M 0.711 0.9705 L 0.9735 0.9705 Q 0.999 1.0215 1.035 1.04325 Q 1.071 1.0650000000000002 1.1055 1.0650000000000002 Q 1.1055 1.0650000000000002 1.1115 1.0650000000000002 Q 1.1175 1.0650000000000002 1.1175 1.0650000000000002 L 1.1175 1.08 L 0.6405 1.08 L 0.6405 1.0650000000000002 L 0.654 1.0650000000000002 Q 0.684 1.0650000000000002 0.7065 1.0402500000000001 Q 0.729 1.0155 0.711 0.9705 M 1.489469970703125 0.009000000000000119 Q 1.519469970703125 0.009000000000000119 1.5637199707031249 0.01200000000000001 Q 1.607969970703125 0.015000000000000124 1.655219970703125 0.0202500000000001 Q 1.702469970703125 0.025500000000000078 1.737719970703125 0.030750000000000055 Q 1.772969970703125 0.03600000000000003 1.7864699707031249 0.04200000000000004 L 1.768469970703125 0.24450000000000005 L 1.753469970703125 0.24450000000000005 Q 1.753469970703125 0.1665000000000001 1.695719970703125 0.11925000000000008 Q 1.637969970703125 0.07200000000000006 1.541969970703125 0.07200000000000006 Q 1.454969970703125 0.07200000000000006 1.401719970703125 0.1140000000000001 Q 1.348469970703125 0.15600000000000003 1.345469970703125 0.21600000000000008 Q 1.343969970703125 0.261 1.373969970703125 0.29400000000000004 Q 1.403969970703125 0.32700000000000007 1.450469970703125 0.35550000000000004 L 1.736969970703125 0.5415000000000001 Q 1.805969970703125 0.5805 1.841219970703125 0.6435000000000001 Q 1.876469970703125 0.7065000000000001 1.871969970703125 0.7905000000000001 Q 1.864469970703125 0.9375 1.759469970703125 1.01925 Q 1.654469970703125 1.101 1.474469970703125 1.101 Q 1.408469970703125 1.101 1.346219970703125 1.08975 Q 1.283969970703125 1.0785 1.2359699707031249 1.0582500000000001 Q 1.187969970703125 1.038 1.1594699707031249 1.0095 Q 1.1474699707031248 0.9765 1.148969970703125 0.93 Q 1.150469970703125 0.8835000000000001 1.163219970703125 0.8355000000000001 Q 1.175969970703125 0.7875000000000001 1.1954699707031249 0.756 L 1.208969970703125 0.756 Q 1.202969970703125 0.8325 1.236719970703125 0.89775 Q 1.2704699707031248 0.9630000000000001 1.3357199707031249 1.00125 Q 1.400969970703125 1.0395 1.490969970703125 1.038 Q 1.589969970703125 1.0365 1.643969970703125 0.9877500000000001 Q 1.697969970703125 0.9390000000000001 1.697969970703125 0.8700000000000001 Q 1.697969970703125 0.8235000000000001 1.670219970703125 0.786 Q 1.642469970703125 0.7485 1.579469970703125 0.7140000000000001 L 1.3169699707031248 0.54 Q 1.237469970703125 0.4950000000000001 1.201469970703125 0.4245000000000001 Q 1.1654699707031249 0.3540000000000001 1.174469970703125 0.2715000000000001 Q 1.180469970703125 0.1935 1.219469970703125 0.1342500000000001 Q 1.2584699707031248 0.07499999999999996 1.326719970703125 0.04200000000000004 Q 1.394969970703125 0.009000000000000119 1.489469970703125 0.009000000000000119 M 1.787969970703125 0.02400000000000002 L 1.7849699707031248 0.055500000000000105 L 1.607969970703125 0.055500000000000105 L 1.607969970703125 0.02400000000000002 L 1.787969970703125 0.02400000000000002 M 2.319002197265625 0.030000000000000027 L 2.499002197265625 0.030000000000000027 Q 2.6280021972656247 0.030000000000000027 2.708252197265625 0.06750000000000012 Q 2.788502197265625 0.1050000000000001 2.828252197265625 0.17025 Q 2.868002197265625 0.23550000000000004 2.871002197265625 0.31800000000000006 Q 2.874002197265625 0.3945000000000001 2.845502197265625 0.4575 Q 2.8170021972656247 0.5205000000000001 2.766752197265625 0.5625000000000001 Q 2.716502197265625 0.6045 2.6535021972656248 0.6232500000000001 Q 2.590502197265625 0.6420000000000001 2.522252197265625 0.63225 Q 2.4540021972656247 0.6225 2.389502197265625 0.5805 L 2.389502197265625 0.5655000000000001 Q 2.389502197265625 0.5655000000000001 2.408252197265625 0.5655000000000001 Q 2.427002197265625 0.5655000000000001 2.456252197265625 0.5595000000000001 Q 2.485502197265625 0.5535000000000001 2.517752197265625 0.537 Q 2.550002197265625 0.5205000000000001 2.578502197265625 0.4860000000000001 Q 2.6070021972656248 0.4515 2.622002197265625 0.3945000000000001 Q 2.6280021972656247 0.3750000000000001 2.6302521972656248 0.35025000000000006 Q 2.632502197265625 0.3255 2.631002197265625 0.3045000000000001 Q 2.6295021972656247 0.20850000000000002 2.579252197265625 0.15075000000000005 Q 2.529002197265625 0.09300000000000008 2.437502197265625 0.09300000000000008 L 2.334002197265625 0.09300000000000008 Q 2.334002197265625 0.09300000000000008 2.330252197265625 0.07725000000000004 Q 2.326502197265625 0.06150000000000011 2.3227521972656247 0.04574999999999996 Q 2.319002197265625 0.030000000000000027 2.319002197265625 0.030000000000000027 M 2.338502197265625 0.030000000000000027 L 2.338502197265625 1.08 L 2.1135021972656247 1.08 L 2.1135021972656247 0.030000000000000027 L 2.338502197265625 0.030000000000000027 M 2.118002197265625 0.9705 L 2.118002197265625 1.08 L 1.9980021972656248 1.08 L 1.9980021972656248 1.0650000000000002 Q 1.9995021972656248 1.0650000000000002 2.0077521972656247 1.0650000000000002 Q 2.016002197265625 1.0650000000000002 2.017502197265625 1.0650000000000002 Q 2.0565021972656248 1.0650000000000002 2.084252197265625 1.03725 Q 2.1120021972656247 1.0095 2.1135021972656247 0.9705 L 2.118002197265625 0.9705 M 2.118002197265625 0.13950000000000007 L 2.1135021972656247 0.13950000000000007 Q 2.1135021972656247 0.10050000000000003 2.085002197265625 0.07275000000000009 Q 2.0565021972656248 0.04500000000000015 2.017502197265625 0.04500000000000015 Q 2.016002197265625 0.04500000000000015 2.0085021972656247 0.04500000000000015 Q 2.001002197265625 0.04500000000000015 1.9995021972656248 0.04500000000000015 L 1.9980021972656248 0.030000000000000027 L 2.118002197265625 0.030000000000000027 L 2.118002197265625 0.13950000000000007 M 2.334002197265625 0.9705 L 2.338502197265625 0.9705 Q 2.340002197265625 1.0095 2.367752197265625 1.03725 Q 2.3955021972656247 1.0650000000000002 2.434502197265625 1.0650000000000002 Q 2.436002197265625 1.0650000000000002 2.444252197265625 1.0650000000000002 Q 2.452502197265625 1.0650000000000002 2.4540021972656247 1.0650000000000002 L 2.4540021972656247 1.08 L 2.334002197265625 1.08 L 2.334002197265625 0.9705 M 3.29848974609375 0.030000000000000027 L 3.4919897460937497 0.030000000000000027 Q 3.5594897460937496 0.030000000000000027 3.62398974609375 0.04500000000000015 Q 3.68848974609375 0.06000000000000005 3.7387397460937497 0.09300000000000008 Q 3.78898974609375 0.126 3.8189897460937496 0.18000000000000005 Q 3.84898974609375 0.2340000000000001 3.84898974609375 0.3135 Q 3.84898974609375 0.37650000000000006 3.82273974609375 0.4387500000000001 Q 3.7964897460937497 0.5010000000000001 3.74248974609375 0.54525 Q 3.68848974609375 0.5895000000000001 3.60298974609375 0.5985 Q 3.65098974609375 0.6135 3.69073974609375 0.6525000000000001 Q 3.73048974609375 0.6915 3.75598974609375 0.7305 Q 3.75748974609375 0.7335 3.7732397460937497 0.7575000000000001 Q 3.78898974609375 0.7815000000000001 3.81223974609375 0.8167500000000001 Q 3.83548974609375 0.8520000000000001 3.86098974609375 0.8880000000000001 Q 3.88648974609375 0.924 3.90748974609375 0.9510000000000001 Q 3.94048974609375 0.9915 3.96748974609375 1.01625 Q 3.99448974609375 1.0410000000000001 4.024489746093749 1.0522500000000001 Q 4.05448974609375 1.0635000000000001 4.09348974609375 1.0650000000000002 L 4.09348974609375 1.08 L 3.94648974609375 1.08 Q 3.8654897460937496 1.08 3.79948974609375 1.0650000000000002 Q 3.73348974609375 1.05 3.68248974609375 1.01625 Q 3.6314897460937496 0.9825 3.59398974609375 0.924 Q 3.58198974609375 0.906 3.56773974609375 0.8782500000000001 Q 3.55348974609375 0.8505 3.5384897460937497 0.8190000000000001 Q 3.52348974609375 0.7875000000000001 3.50923974609375 0.7582500000000001 Q 3.49498974609375 0.7290000000000001 3.48448974609375 0.7050000000000001 Q 3.47398974609375 0.681 3.4694897460937497 0.6675 Q 3.44998974609375 0.6195 3.4237397460937498 0.5955000000000001 Q 3.3974897460937497 0.5715 3.36748974609375 0.5670000000000001 L 3.36748974609375 0.552 Q 3.37198974609375 0.552 3.38548974609375 0.552 Q 3.3989897460937497 0.552 3.41398974609375 0.552 Q 3.45448974609375 0.552 3.4927397460937497 0.5355000000000001 Q 3.53098974609375 0.519 3.5609897460937496 0.48150000000000004 Q 3.59098974609375 0.44400000000000006 3.60298974609375 0.378 Q 3.60598974609375 0.36450000000000005 3.6082397460937496 0.34650000000000003 Q 3.6104897460937497 0.3285 3.6089897460937497 0.30600000000000005 Q 3.60448974609375 0.19800000000000006 3.55498974609375 0.14775000000000005 Q 3.5054897460937497 0.09750000000000003 3.43198974609375 0.09600000000000009 Q 3.4109897460937497 0.09450000000000003 3.3862397460937497 0.09525000000000006 Q 3.36148974609375 0.09600000000000009 3.3412397460937497 0.09600000000000009 Q 3.32098974609375 0.09600000000000009 3.31348974609375 0.09600000000000009 Q 3.31348974609375 0.09450000000000003 3.30973974609375 0.0787500000000001 Q 3.3059897460937497 0.06299999999999994 3.3022397460937496 0.046499999999999986 Q 3.29848974609375 0.030000000000000027 3.29848974609375 0.030000000000000027 M 3.3179897460937497 0.030000000000000027 L 3.3179897460937497 1.08 L 3.0929897460937497 1.08 L 3.0929897460937497 0.030000000000000027 L 3.3179897460937497 0.030000000000000027 M 3.09748974609375 0.9705 L 3.09748974609375 1.08 L 2.9774897460937497 1.08 L 2.9774897460937497 1.0650000000000002 Q 2.97898974609375 1.0650000000000002 2.9872397460937496 1.0650000000000002 Q 2.99548974609375 1.0650000000000002 2.99698974609375 1.0650000000000002 Q 3.0359897460937497 1.0650000000000002 3.06373974609375 1.03725 Q 3.0914897460937496 1.0095 3.0929897460937497 0.9705 L 3.09748974609375 0.9705 M 3.09748974609375 0.13950000000000007 L 3.0929897460937497 0.13950000000000007 Q 3.0914897460937496 0.10050000000000003 3.06373974609375 0.07275000000000009 Q 3.0359897460937497 0.04500000000000015 2.99698974609375 0.04500000000000015 Q 2.99548974609375 0.04500000000000015 2.9872397460937496 0.04500000000000015 Q 2.97898974609375 0.04500000000000015 2.9774897460937497 0.04500000000000015 L 2.9774897460937497 0.030000000000000027 L 3.09748974609375 0.030000000000000027 L 3.09748974609375 0.13950000000000007 M 3.31348974609375 0.9705 L 3.3179897460937497 0.9705 Q 3.3179897460937497 1.0095 3.34648974609375 1.03725 Q 3.3749897460937497 1.0650000000000002 3.41398974609375 1.0650000000000002 Q 3.41698974609375 1.0650000000000002 3.42448974609375 1.0650000000000002 Q 3.43198974609375 1.0650000000000002 3.43198974609375 1.0650000000000002 L 3.43198974609375 1.08 L 3.31348974609375 1.08 L 3.31348974609375 0.9705" fill="#382d5e" fill-rule="nonzero"></path></g><g></g></g><defs><clipPath id="SvgjsClipPath1001"><path d=" M 4.5855036621093745 -1.340099784585914 h 5.6221014793586885 v 3.760199569171828 h -5.6221014793586885 Z"></path></clipPath><clipPath id="SvgjsClipPath1000a80b2d95-82ea-4d67-8e6b-f7e02f6b1d63"><path d=" M 4.5855036621093745 -1.3400997845859137 L 10.207605141468063 -1.3400997845859137 L 10.207605141468063 2.4200997845859136 L 4.5855036621093745 2.4200997845859136 Z"></path></clipPath></defs></svg>